<svg width="154" height="154" viewBox="0 0 154 154" fill="none" xmlns="http://www.w3.org/2000/svg">
<g id="investor 1">
<g id="Group">
<g id="Vector">
<mask id="path-1-inside-1_255_95" fill="white">
<path d="M139.808 104.667H138.214C137.577 99.1203 133.433 94.6272 128.061 93.468C131.846 87.8978 134.39 81.4055 135.276 74.3774C135.432 73.1415 134.556 72.013 133.32 71.8572C132.087 71.6999 130.956 72.5767 130.8 73.8129C130.227 78.358 128.88 82.6525 126.901 86.5684L119.411 82.2438C121.427 78.0897 122.487 73.4991 122.473 68.7459C122.46 64.0516 121.401 59.5212 119.41 55.4189L126.914 51.0864C128.908 55.0411 130.229 59.3429 130.797 63.8495C130.941 64.99 131.912 65.8235 133.032 65.8235C133.126 65.8235 133.221 65.8175 133.317 65.8055C134.553 65.6497 135.429 64.5214 135.273 63.2855C133.905 52.4294 128.618 42.6432 120.322 35.5243C121.965 33.7208 123.946 32.3875 126.937 30.8535C127.69 30.4673 128.163 29.6925 128.163 28.8464C128.163 28.0003 127.69 27.2252 126.937 26.8389C121.547 24.0751 119.437 21.9645 116.673 16.5745C116.287 15.8216 115.512 15.3479 114.665 15.3479C113.819 15.3479 113.044 15.8213 112.658 16.5745C110.029 21.701 107.989 23.8612 103.158 26.4383C99.4037 25.4271 95.5245 24.9142 91.5921 24.9248C71.4374 24.9813 54.0233 38.7351 49.1507 58.0173C44.0524 54.9641 38.1544 53.29 32.1622 53.29H17.8451V53.0012C17.8451 50.099 15.4836 47.7375 12.5814 47.7375H2.25586C1.01002 47.7375 0 48.7476 0 49.9934C0 51.2392 1.01002 52.2492 2.25586 52.2492H12.5817C12.9962 52.2492 13.3336 52.5867 13.3336 53.0012V61.8562C13.3336 63.102 14.3437 64.1121 15.5895 64.1121C16.8353 64.1121 17.8454 63.102 17.8454 61.8562V57.8017H32.1625C39.7034 57.8017 47.072 60.8723 52.3792 66.2269L68.7778 82.7638C69.2191 83.2087 69.7993 83.4312 70.3798 83.4312C70.954 83.4312 71.5285 83.2135 71.9682 82.7773C72.8528 81.9 72.8588 80.4715 71.9818 79.5872L65.8717 73.4258C65.6103 71.9438 65.4741 70.424 65.4698 68.9059C65.4503 61.8953 68.1618 55.2965 73.1052 50.3255C78.0657 45.3364 84.6829 42.5854 91.7184 42.5861C98.7002 42.5861 105.27 45.2961 110.223 50.2214C115.194 55.1647 117.942 61.7479 117.962 68.7585C117.981 75.7691 115.27 82.3677 110.327 87.3387C105.383 92.3097 98.8 95.0585 91.7894 95.0781C91.7645 95.0781 91.7398 95.0781 91.7151 95.0781C90.0981 95.0781 88.4814 94.9289 86.9071 94.6374L79.4261 87.0917C78.549 86.2068 77.1206 86.2008 76.236 87.0779C75.3511 87.9553 75.3451 89.3834 76.2222 90.268L89.8012 103.965C91.1394 105.316 91.8763 107.105 91.8763 109.003C91.8763 110.897 91.1436 112.682 89.8139 114.03C88.461 115.401 86.6533 116.157 84.7241 116.159C84.7205 116.159 84.7178 116.159 84.7141 116.159C82.9212 116.159 81.2043 115.489 79.88 114.272L51.0438 87.7736C50.1264 86.9305 48.6995 86.9907 47.8564 87.9084C47.0133 88.8258 47.0738 90.2527 47.9911 91.0957L76.8277 117.595C78.9876 119.579 81.7875 120.671 84.7141 120.671H84.7274H84.7301H130.807C133.752 120.671 136.52 121.818 138.602 123.899C140.684 125.981 141.83 128.75 141.83 131.695C141.83 133.043 140.735 134.14 139.388 134.14H129.216C127.969 134.14 126.96 135.15 126.96 136.396C126.96 137.642 127.969 138.652 129.216 138.652H139.388C143.222 138.652 146.342 135.531 146.342 131.695C146.342 130.135 146.114 128.611 145.673 127.159H147.518C151.092 127.159 154 124.252 154 120.678V118.859C154 111.033 147.633 104.667 139.808 104.667ZM60.9626 68.4749L55.5835 63.0503C54.8044 62.2644 53.9866 61.5211 53.1354 60.8221C53.8423 57.3953 54.9864 54.1478 56.5021 51.1324L64.0159 55.4706C62.1062 59.4136 61.0156 63.8224 60.9626 68.4749ZM89.4129 38.161C79.7994 38.8762 71.4079 44.0274 66.2756 51.5656L58.757 47.2247C65.4572 37.0219 76.7248 30.2426 89.4129 29.5054V38.161ZM125.321 97.6862C129.483 97.6862 132.951 100.705 133.657 104.667H117.079C119.921 102.652 122.515 100.307 124.804 97.6862H125.321ZM114.666 22.1648C116.512 25.0313 118.481 27.0011 121.348 28.8467C118.481 30.6926 116.512 32.6624 114.666 35.5285C112.82 32.6621 110.85 30.6923 107.984 28.8467C110.85 27.0008 112.82 25.031 114.666 22.1648ZM117.146 51.5171C116.054 49.9212 114.805 48.4155 113.404 47.022C108.124 41.7715 101.278 38.6702 93.9247 38.1522V29.5012C96.8741 29.663 99.7824 30.153 102.604 30.9627C107.838 33.6739 109.931 35.7998 112.659 41.1182C113.045 41.8711 113.82 42.3448 114.666 42.3448C115.512 42.3448 116.287 41.8714 116.673 41.1182C117.023 40.4358 117.363 39.8062 117.7 39.2209C120.393 41.5814 122.724 44.259 124.652 47.1835L117.146 51.5171ZM91.8168 99.5898C100.027 99.563 107.737 96.3426 113.526 90.5201C114.878 89.1602 116.086 87.6951 117.146 86.1455L124.641 90.4728C118.379 99.9754 108.123 106.579 96.3399 107.958C96.1008 105.257 94.9398 102.742 93.0061 100.789L91.8168 99.5898ZM149.488 120.678C149.488 121.764 148.605 122.648 147.518 122.648H143.437C142.945 121.965 142.399 121.316 141.793 120.709C138.859 117.775 134.957 116.159 130.807 116.159H93.9343C94.7843 115.069 95.4262 113.849 95.8394 112.547C100.482 112.114 104.922 110.952 109.044 109.178H139.808C145.146 109.178 149.489 113.521 149.489 118.859V120.678H149.488Z"/>
</mask>
<path d="M139.808 104.667H138.214C137.577 99.1203 133.433 94.6272 128.061 93.468C131.846 87.8978 134.39 81.4055 135.276 74.3774C135.432 73.1415 134.556 72.013 133.32 71.8572C132.087 71.6999 130.956 72.5767 130.8 73.8129C130.227 78.358 128.88 82.6525 126.901 86.5684L119.411 82.2438C121.427 78.0897 122.487 73.4991 122.473 68.7459C122.46 64.0516 121.401 59.5212 119.41 55.4189L126.914 51.0864C128.908 55.0411 130.229 59.3429 130.797 63.8495C130.941 64.99 131.912 65.8235 133.032 65.8235C133.126 65.8235 133.221 65.8175 133.317 65.8055C134.553 65.6497 135.429 64.5214 135.273 63.2855C133.905 52.4294 128.618 42.6432 120.322 35.5243C121.965 33.7208 123.946 32.3875 126.937 30.8535C127.69 30.4673 128.163 29.6925 128.163 28.8464C128.163 28.0003 127.69 27.2252 126.937 26.8389C121.547 24.0751 119.437 21.9645 116.673 16.5745C116.287 15.8216 115.512 15.3479 114.665 15.3479C113.819 15.3479 113.044 15.8213 112.658 16.5745C110.029 21.701 107.989 23.8612 103.158 26.4383C99.4037 25.4271 95.5245 24.9142 91.5921 24.9248C71.4374 24.9813 54.0233 38.7351 49.1507 58.0173C44.0524 54.9641 38.1544 53.29 32.1622 53.29H17.8451V53.0012C17.8451 50.099 15.4836 47.7375 12.5814 47.7375H2.25586C1.01002 47.7375 0 48.7476 0 49.9934C0 51.2392 1.01002 52.2492 2.25586 52.2492H12.5817C12.9962 52.2492 13.3336 52.5867 13.3336 53.0012V61.8562C13.3336 63.102 14.3437 64.1121 15.5895 64.1121C16.8353 64.1121 17.8454 63.102 17.8454 61.8562V57.8017H32.1625C39.7034 57.8017 47.072 60.8723 52.3792 66.2269L68.7778 82.7638C69.2191 83.2087 69.7993 83.4312 70.3798 83.4312C70.954 83.4312 71.5285 83.2135 71.9682 82.7773C72.8528 81.9 72.8588 80.4715 71.9818 79.5872L65.8717 73.4258C65.6103 71.9438 65.4741 70.424 65.4698 68.9059C65.4503 61.8953 68.1618 55.2965 73.1052 50.3255C78.0657 45.3364 84.6829 42.5854 91.7184 42.5861C98.7002 42.5861 105.27 45.2961 110.223 50.2214C115.194 55.1647 117.942 61.7479 117.962 68.7585C117.981 75.7691 115.27 82.3677 110.327 87.3387C105.383 92.3097 98.8 95.0585 91.7894 95.0781C91.7645 95.0781 91.7398 95.0781 91.7151 95.0781C90.0981 95.0781 88.4814 94.9289 86.9071 94.6374L79.4261 87.0917C78.549 86.2068 77.1206 86.2008 76.236 87.0779C75.3511 87.9553 75.3451 89.3834 76.2222 90.268L89.8012 103.965C91.1394 105.316 91.8763 107.105 91.8763 109.003C91.8763 110.897 91.1436 112.682 89.8139 114.03C88.461 115.401 86.6533 116.157 84.7241 116.159C84.7205 116.159 84.7178 116.159 84.7141 116.159C82.9212 116.159 81.2043 115.489 79.88 114.272L51.0438 87.7736C50.1264 86.9305 48.6995 86.9907 47.8564 87.9084C47.0133 88.8258 47.0738 90.2527 47.9911 91.0957L76.8277 117.595C78.9876 119.579 81.7875 120.671 84.7141 120.671H84.7274H84.7301H130.807C133.752 120.671 136.52 121.818 138.602 123.899C140.684 125.981 141.83 128.75 141.83 131.695C141.83 133.043 140.735 134.14 139.388 134.14H129.216C127.969 134.14 126.96 135.15 126.96 136.396C126.96 137.642 127.969 138.652 129.216 138.652H139.388C143.222 138.652 146.342 135.531 146.342 131.695C146.342 130.135 146.114 128.611 145.673 127.159H147.518C151.092 127.159 154 124.252 154 120.678V118.859C154 111.033 147.633 104.667 139.808 104.667ZM60.9626 68.4749L55.5835 63.0503C54.8044 62.2644 53.9866 61.5211 53.1354 60.8221C53.8423 57.3953 54.9864 54.1478 56.5021 51.1324L64.0159 55.4706C62.1062 59.4136 61.0156 63.8224 60.9626 68.4749ZM89.4129 38.161C79.7994 38.8762 71.4079 44.0274 66.2756 51.5656L58.757 47.2247C65.4572 37.0219 76.7248 30.2426 89.4129 29.5054V38.161ZM125.321 97.6862C129.483 97.6862 132.951 100.705 133.657 104.667H117.079C119.921 102.652 122.515 100.307 124.804 97.6862H125.321ZM114.666 22.1648C116.512 25.0313 118.481 27.0011 121.348 28.8467C118.481 30.6926 116.512 32.6624 114.666 35.5285C112.82 32.6621 110.85 30.6923 107.984 28.8467C110.85 27.0008 112.82 25.031 114.666 22.1648ZM117.146 51.5171C116.054 49.9212 114.805 48.4155 113.404 47.022C108.124 41.7715 101.278 38.6702 93.9247 38.1522V29.5012C96.8741 29.663 99.7824 30.153 102.604 30.9627C107.838 33.6739 109.931 35.7998 112.659 41.1182C113.045 41.8711 113.82 42.3448 114.666 42.3448C115.512 42.3448 116.287 41.8714 116.673 41.1182C117.023 40.4358 117.363 39.8062 117.7 39.2209C120.393 41.5814 122.724 44.259 124.652 47.1835L117.146 51.5171ZM91.8168 99.5898C100.027 99.563 107.737 96.3426 113.526 90.5201C114.878 89.1602 116.086 87.6951 117.146 86.1455L124.641 90.4728C118.379 99.9754 108.123 106.579 96.3399 107.958C96.1008 105.257 94.9398 102.742 93.0061 100.789L91.8168 99.5898ZM149.488 120.678C149.488 121.764 148.605 122.648 147.518 122.648H143.437C142.945 121.965 142.399 121.316 141.793 120.709C138.859 117.775 134.957 116.159 130.807 116.159H93.9343C94.7843 115.069 95.4262 113.849 95.8394 112.547C100.482 112.114 104.922 110.952 109.044 109.178H139.808C145.146 109.178 149.489 113.521 149.489 118.859V120.678H149.488Z" fill="#6F6F6F" stroke="white" stroke-width="2" mask="url(#path-1-inside-1_255_95)"/>
</g>
<path id="Vector_2" d="M70.8268 132.819L70.827 132.819C72.6319 134.01 74.7305 134.64 76.8947 134.64H118.688C119.658 134.64 120.444 135.426 120.444 136.396C120.444 137.366 119.658 138.152 118.688 138.152H76.8944C74.0402 138.152 71.2734 137.321 68.8921 135.75C68.8921 135.75 68.892 135.75 68.892 135.75L20.9232 104.08L20.9232 104.08C20.0042 103.474 19.0513 102.919 18.0738 102.417L17.3454 102.043V102.862V103.19C17.3454 105.816 15.2078 107.953 12.5817 107.953H2.25586C1.28617 107.953 0.5 107.167 0.5 106.197C0.5 105.228 1.28617 104.442 2.25586 104.442H12.5817C13.2723 104.442 13.8336 103.88 13.8336 103.19V72.3835C13.8336 71.4139 14.6198 70.6277 15.5895 70.6277C16.5592 70.6277 17.3454 71.4139 17.3454 72.3835V97.8754V98.2039L17.6469 98.3343C19.4579 99.1172 21.207 100.06 22.8577 101.15L70.8268 132.819Z" fill="#6F6F6F" stroke="white"/>
<path id="Vector_3" d="M91.5794 79.536L91.5791 79.536C90.3358 79.5471 89.4583 79.5249 88.641 79.3235C87.8123 79.1194 87.0787 78.7402 86.0951 78.1008C85.282 77.5724 84.1948 77.8027 83.6658 78.6158C83.1373 79.4288 83.368 80.5163 84.1809 81.045C86.307 82.4272 87.754 82.8679 89.5378 82.9994L89.9998 83.0335L90.0011 83.4967L90.0074 85.7637C90.0102 86.7317 90.7957 87.5146 91.7633 87.5146L91.7681 87.5146C91.7685 87.5146 91.7689 87.5146 91.7693 87.5146C92.7384 87.5112 93.5216 86.7232 93.5191 85.7539C93.5191 85.7538 93.5191 85.7538 93.5191 85.7538L93.5119 83.2153L93.5108 82.834L93.8782 82.732C97.3014 81.7824 99.5003 78.8129 99.9845 75.8835C100.612 72.0849 98.5529 68.6649 94.8229 67.3581L94.8228 67.3581C94.2558 67.1592 93.7114 66.9789 93.1875 66.8053L93.1556 66.7948L93.3129 66.3202L93.1556 66.7948L93.1365 66.7885C92.1246 66.4532 91.2221 66.1543 90.4778 65.8278C89.7303 65.5 89.0893 65.1228 88.636 64.6037L88.6359 64.6036C87.7022 63.5339 87.3389 62.124 87.7105 60.8267C87.9092 60.1324 88.5014 58.8822 90.1694 58.3746C93.14 57.4706 95.0117 59.3156 95.2337 59.5493L94.8712 59.8937L95.2337 59.5493C95.902 60.2527 97.0136 60.2808 97.7159 59.6131L97.7161 59.6129C98.4193 58.9451 98.4477 57.8338 97.7797 57.1307C96.8984 56.2031 95.5134 55.3015 93.8099 54.8753L93.4324 54.7809L93.4313 54.3917L93.4244 51.9007C93.4216 50.9325 92.6361 50.1497 91.6685 50.1497H91.6685H91.6685H91.6685H91.6685H91.6685H91.6684H91.6684H91.6684H91.6684H91.6684H91.6684H91.6684H91.6684H91.6683H91.6683H91.6683H91.6683H91.6683H91.6683H91.6683H91.6683H91.6682H91.6682H91.6682H91.6682H91.6682H91.6682H91.6682H91.6682H91.6681H91.6681H91.6681H91.6681H91.6681H91.6681H91.6681H91.6681H91.668H91.668H91.668H91.668H91.668H91.668H91.668H91.668H91.6679H91.6679H91.6679H91.6679H91.6679H91.6679H91.6679H91.6679H91.6678H91.6678H91.6678H91.6678H91.6678H91.6678H91.6678H91.6678H91.6677H91.6677H91.6677H91.6677H91.6677H91.6677H91.6677H91.6677H91.6677H91.6676H91.6676H91.6676H91.6676H91.6676H91.6676H91.6676H91.6676H91.6675H91.6675H91.6675H91.6675H91.6675H91.6675H91.6675H91.6675H91.6674H91.6674H91.6674H91.6674H91.6674H91.6674H91.6674H91.6674H91.6673H91.6673H91.6673H91.6673H91.6673H91.6673H91.6673H91.6673H91.6672H91.6672H91.6672H91.6672H91.6672H91.6672H91.6672H91.6672H91.6671H91.6671H91.6671H91.6671H91.6671H91.6671H91.6671H91.6671H91.667H91.667H91.667H91.667H91.667H91.667H91.667H91.667H91.6669H91.6669H91.6669H91.6669H91.6669H91.6669H91.6669H91.6669H91.6668H91.6668H91.6668H91.6668H91.6668H91.6668H91.6668H91.6668H91.6667H91.6667H91.6667H91.6667H91.6667H91.6667H91.6667H91.6667H91.6667H91.6666H91.6666H91.6666H91.6666H91.6666H91.6666H91.6666H91.6666H91.6665H91.6665H91.6665H91.6665H91.6665H91.6665H91.6665H91.6665H91.6664H91.6664H91.6664H91.6664H91.6664H91.6664H91.6664H91.6664H91.6663H91.6663H91.6663H91.6663H91.6663H91.6663H91.6663H91.6663H91.6662H91.6662H91.6662H91.6662H91.6662H91.6662H91.6662H91.6662H91.6661H91.6661H91.6661H91.6661H91.6661H91.6661H91.6661H91.6661H91.666H91.666H91.666H91.666H91.666H91.666H91.666H91.666H91.6659H91.6659H91.6659H91.6659H91.6659H91.6659H91.6659H91.6659H91.6658H91.6658H91.6658H91.6658H91.6658H91.6658H91.6658H91.6658H91.6658H91.6657H91.6657H91.6657H91.6657H91.6657H91.6657H91.6657H91.6657H91.6656H91.6656H91.6656H91.6656H91.6656H91.6656H91.6656H91.6656H91.6655H91.6655H91.6655H91.6655H91.6655H91.6655H91.6655H91.6655H91.6654H91.6654H91.6654H91.6654H91.6654H91.6654H91.6654H91.6654H91.6653H91.6653H91.6653H91.6653H91.6653H91.6653H91.6653H91.6653H91.6652H91.6652H91.6652H91.6652H91.6652H91.6652H91.6652H91.6652H91.6651H91.6651H91.6651H91.6651H91.6651H91.6651H91.6651H91.6651H91.665H91.665H91.665H91.665H91.665H91.665H91.665H91.665H91.6649H91.6649H91.6649H91.6649H91.6649H91.6649H91.6649H91.6649H91.6649H91.6648H91.6648H91.6648H91.6648H91.6648H91.6648H91.6648H91.6648H91.6647H91.6647H91.6647H91.6647H91.6647H91.6647H91.6647H91.6647H91.6646H91.6646H91.6646H91.6646H91.6646H91.6646H91.6646H91.6646H91.6645H91.6645H91.6645H91.6645H91.6645H91.6645H91.6645H91.6645H91.6644H91.6644H91.6644H91.6644H91.6644H91.6644H91.6644H91.6644H91.6643H91.6643H91.6643H91.6643H91.6643H91.6643H91.6643H91.6643H91.6642H91.6642H91.6642H91.6642H91.6642H91.6642H91.6642H91.6642H91.6641H91.6641H91.6641H91.6641H91.6641H91.6641H91.6641H91.6641H91.664H91.664H91.664H91.664H91.664H91.664H91.664H91.664H91.6639H91.6639H91.6639H91.6639H91.6639H91.6639H91.6639H91.6639H91.6639H91.6638H91.6638H91.6638H91.6638H91.6638H91.6638H91.6638H91.6638H91.6637H91.6637H91.6637H91.6637H91.6637H91.6637H91.6637H91.6637H91.6636H91.6636H91.6636H91.6636H91.6636H91.6636H91.6636H91.6636H91.6635H91.6635H91.6635H91.6635H91.6635H91.6635H91.6635H91.6635H91.6634H91.6634H91.6634H91.6634H91.6634H91.6634H91.6634H91.6634H91.6633H91.6633H91.6633H91.6633H91.6633H91.6633H91.6633H91.6633H91.6632H91.6632H91.6632H91.6632H91.6632H91.6632H91.6632H91.6632H91.6631H91.6631H91.6631H91.6631H91.6631H91.6631H91.6631H91.6631H91.663H91.663H91.663H91.663H91.663H91.663H91.663H91.663H91.663H91.6629H91.6629H91.6629H91.6629C90.6933 50.1526 89.9098 50.9406 89.9127 51.9104V51.9105L89.9196 54.4256L89.9207 54.8218L89.5352 54.9134C87.0239 55.5106 85.0266 57.4212 84.3346 59.8591L84.3343 59.8602C83.6403 62.284 84.2517 64.921 85.9904 66.9132L91.5794 79.536ZM91.5794 79.536C94.5032 79.5082 96.1891 77.3133 96.5198 75.3112M91.5794 79.536L96.5198 75.3112M92.0519 70.1286L92.0521 70.1287C92.0843 70.1394 92.1166 70.1501 92.149 70.1608C92.6291 70.32 93.1355 70.4878 93.6624 70.6725M92.0519 70.1286L93.6624 70.6725M92.0519 70.1286C89.4989 69.2832 87.4586 68.5947 85.9905 66.9133L92.0519 70.1286ZM93.6624 70.6725C95.1605 71.1975 95.9439 72.0932 96.3088 73.0226C96.6644 73.928 96.6025 74.8115 96.5198 75.3112M93.6624 70.6725L96.5198 75.3112" fill="#6F6F6F" stroke="white"/>
<path id="Vector_4" d="M139.099 29.4552L139.099 29.4552C138.077 31.4478 137.178 32.8526 136.013 34.0177C134.848 35.1827 133.443 36.0817 131.451 37.1037L139.099 29.4552ZM139.099 29.4552C139.4 28.869 140.003 28.5005 140.662 28.5005C141.32 28.5005 141.923 28.8691 142.224 29.4552M139.099 29.4552L142.224 29.4552M142.669 48.1053L142.224 47.8772C143.246 45.8846 144.145 44.4798 145.31 43.3147C146.475 42.1496 147.88 41.2506 149.872 40.2287C150.458 39.9281 150.827 39.3248 150.827 38.6662C150.827 38.0076 150.458 37.4043 149.872 37.1037L142.669 48.1053ZM142.669 48.1053L142.224 47.8772C141.923 48.4634 141.32 48.8319 140.662 48.8319C140.003 48.8319 139.4 48.4632 139.099 47.8772L142.669 48.1053ZM136.013 43.3145C137.178 44.4795 138.077 45.8844 139.099 47.8771L136.013 43.3145ZM136.013 43.3145C134.848 42.1494 133.443 41.2505 131.451 40.2288M136.013 43.3145L131.451 40.2288M131.451 40.2288C130.865 39.9281 130.496 39.3247 130.496 38.6662C130.496 38.0076 130.865 37.4043 131.451 37.1037L131.451 40.2288ZM142.224 29.4552C143.246 31.4479 144.145 32.8528 145.31 34.0179M142.224 29.4552L145.31 34.0179M145.31 34.0179C146.475 35.183 147.88 36.0819 149.872 37.1037L145.31 34.0179ZM141.07 34.3877L140.662 33.809L140.253 34.3877C139.15 35.9508 137.946 37.1542 136.383 38.2577L135.804 38.6661L136.383 39.0746C137.946 40.1785 139.15 41.3816 140.253 42.9447L140.661 43.5232L141.07 42.9448C142.174 41.3819 143.377 40.1784 144.94 39.0746L145.519 38.6662L144.94 38.2577C143.377 37.1539 142.173 35.9508 141.07 34.3877Z" fill="#6F6F6F" stroke="white"/>
<path id="Vector_5" d="M43.1712 30.8393L43.1712 30.8393C45.1638 31.8611 46.5686 32.76 47.7337 33.9251C48.8987 35.0901 49.7977 36.495 50.8197 38.4877C51.1203 39.0737 51.7234 39.4422 52.3819 39.4422C53.0405 39.4422 53.6438 39.0737 53.9444 38.4875C54.9662 36.4947 55.8651 35.0899 57.0302 33.9249C58.1953 32.7599 59.6001 31.8609 61.5928 30.839C62.1789 30.5383 62.5476 29.9352 62.5476 29.2765C62.5476 28.6179 62.1791 28.0146 61.5932 27.7143L61.5931 27.7143C59.6004 26.6922 58.1956 25.7932 57.0305 24.6282C55.8654 23.4631 54.9665 22.0584 53.9447 20.0658M43.1712 30.8393L43.1716 27.7143M43.1712 30.8393C42.5853 30.5389 42.2166 29.9357 42.2168 29.2767V29.2765M43.1712 30.8393L42.2168 29.2765M53.9447 20.0658L54.3896 19.8377L53.9447 20.0659C53.9447 20.0659 53.9447 20.0658 53.9447 20.0658ZM53.9447 20.0658C53.644 19.4797 53.0409 19.1111 52.3822 19.1111C51.7236 19.1111 51.1204 19.4796 50.8201 20.0657L50.82 20.0658C49.798 22.0586 48.899 23.4634 47.734 24.6284C46.5689 25.7934 45.1641 26.6923 43.1716 27.7143M43.1716 27.7143C42.5854 28.0149 42.2168 28.6181 42.2168 29.2765M43.1716 27.7143L42.2168 29.2765M52.7906 24.9982L52.3822 24.4198L51.9738 24.9982C50.87 26.5614 49.6665 27.7649 48.1033 28.8686L47.5249 29.2771L48.1033 29.6855C49.6666 30.7893 50.87 31.9925 51.9737 33.5559L52.3822 34.1345L52.7906 33.556C53.8944 31.9927 55.0978 30.7893 56.6611 29.6855L57.2395 29.2771L56.6611 28.8687C55.0975 27.7646 53.8944 26.5614 52.7906 24.9982Z" fill="#6F6F6F" stroke="white"/>
</g>
</g>
</svg>
