<svg xmlns="http://www.w3.org/2000/svg" fill="none" viewBox="0 0 242 53">
  <g clip-path="url(#a)">
    <path fill="#3D58F0" d="M59 18.7404 27.6489 4v12.9997L0 4v31.0678L31.3511 49V36.7126L59 49V18.7404Z"/>
  </g>
  <path fill="#000" d="M79.52 41V13h7.44l7.68 15.12L102.32 13h7.44v28h-5.48V20.4L94.56 39l-9.68-18.68V41h-5.36Zm34.913 0V20.16h5.48V41h-5.48Zm2.72-23.32c-.853 0-1.586-.3067-2.2-.92-.613-.6133-.92-1.3467-.92-2.2 0-.88.307-1.6133.92-2.2.614-.6133 1.347-.92 2.2-.92.88 0 1.614.3067 2.2.92.614.5867.92 1.32.92 2.2 0 .8533-.306 1.5867-.92 2.2-.586.6133-1.32.92-2.2.92ZM124.199 41V20.16h5.48v2.32c.667-.9067 1.467-1.6 2.4-2.08.933-.48 1.987-.72 3.16-.72 1.013.0267 1.773.1867 2.28.48v4.8c-.4-.1867-.84-.32-1.32-.4-.48-.1067-.973-.16-1.48-.16-1.067 0-2.04.2667-2.92.8-.88.5333-1.587 1.2933-2.12 2.28V41h-5.48Zm16.328 0V20.16h5.48v2.32c.667-.9067 1.467-1.6 2.4-2.08.934-.48 1.987-.72 3.16-.72 1.014.0267 1.774.1867 2.28.48v4.8c-.4-.1867-.84-.32-1.32-.4-.48-.1067-.973-.16-1.48-.16-1.066 0-2.04.2667-2.92.8-.88.5333-1.586 1.2933-2.12 2.28V41h-5.48Zm25.668.4c-2.08 0-3.96-.48-5.64-1.44-1.68-.96-3.013-2.2533-4-3.88-.987-1.6267-1.48-3.4533-1.48-5.48 0-2.0267.48-3.8533 1.44-5.48.987-1.6533 2.32-2.96 4-3.92 1.707-.96 3.6-1.44 5.68-1.44 2.08 0 3.96.48 5.64 1.44 1.707.96 3.04 2.2667 4 3.92.987 1.6267 1.48 3.4533 1.48 5.48 0 2.0267-.493 3.8533-1.48 5.48-.96 1.6267-2.28 2.92-3.96 3.88-1.68.96-3.573 1.44-5.68 1.44Zm0-4.76c1.093 0 2.067-.2667 2.92-.8.88-.5333 1.573-1.2533 2.08-2.16.533-.9333.8-1.96.8-3.08 0-1.1467-.267-2.1733-.8-3.08-.507-.9067-1.2-1.6267-2.08-2.16-.853-.56-1.827-.84-2.92-.84-1.067 0-2.04.28-2.92.84-.88.5333-1.573 1.2533-2.08 2.16-.507.9067-.76 1.9333-.76 3.08 0 1.12.253 2.1467.76 3.08.507.9067 1.2 1.6267 2.08 2.16.88.5333 1.853.8 2.92.8ZM180.683 41V20.16h5.48v2.32c.667-.9067 1.467-1.6 2.4-2.08.934-.48 1.987-.72 3.16-.72 1.014.0267 1.774.1867 2.28.48v4.8c-.4-.1867-.84-.32-1.32-.4-.48-.1067-.973-.16-1.48-.16-1.066 0-2.04.2667-2.92.8-.88.5333-1.586 1.2933-2.12 2.28V41h-5.48Zm16.689 0V13h5.8v28h-5.8Zm10.898 0V13h7.44l7.68 15.12L231.07 13h7.44v28h-5.48V20.4L223.31 39l-9.68-18.68V41h-5.36Z"/>
  <defs>
    <clipPath id="a">
      <path fill="#fff" d="M0 4h59v45H0z"/>
    </clipPath>
  </defs>
</svg>
