<svg width="154" height="124" viewBox="0 0 154 124" fill="none" xmlns="http://www.w3.org/2000/svg">
<g id="Group">
<g id="Vector">
<mask id="path-1-inside-1_255_261" fill="white">
<path d="M139.808 89.6667H138.214C137.577 84.1203 133.433 79.6272 128.061 78.468C131.846 72.8978 134.39 66.4055 135.276 59.3774C135.432 58.1415 134.556 57.013 133.32 56.8572C132.087 56.6999 130.956 57.5767 130.8 58.8129C130.227 63.358 128.88 67.6525 126.901 71.5684L119.411 67.2438C121.427 63.0897 122.487 58.4991 122.473 53.7459C122.46 49.0516 121.401 44.5212 119.41 40.4189L126.914 36.0864C128.908 40.0411 130.229 44.3429 130.797 48.8495C130.941 49.99 131.912 50.8235 133.032 50.8235C133.126 50.8235 133.221 50.8175 133.317 50.8055C134.553 50.6497 135.429 49.5214 135.273 48.2855C133.905 37.4294 128.618 27.6432 120.322 20.5243C121.965 18.7208 123.946 17.3875 126.937 15.8535C127.69 15.4673 128.163 14.6925 128.163 13.8464C128.163 13.0003 127.69 12.2252 126.937 11.8389C121.547 9.07507 119.437 6.96449 116.673 1.57449C116.287 0.821631 115.512 0.3479 114.665 0.3479C113.819 0.3479 113.044 0.82133 112.658 1.57449C110.029 6.701 107.989 8.86121 103.158 11.4383C99.4037 10.4271 95.5245 9.91425 91.5921 9.92477C71.4374 9.98132 54.0233 23.7351 49.1507 43.0173C44.0524 39.9641 38.1544 38.29 32.1622 38.29H17.8451V38.0012C17.8451 35.099 15.4836 32.7375 12.5814 32.7375H2.25586C1.01002 32.7375 0 33.7476 0 34.9934C0 36.2392 1.01002 37.2492 2.25586 37.2492H12.5817C12.9962 37.2492 13.3336 37.5867 13.3336 38.0012V46.8562C13.3336 48.102 14.3437 49.1121 15.5895 49.1121C16.8353 49.1121 17.8454 48.102 17.8454 46.8562V42.8017H32.1625C39.7034 42.8017 47.072 45.8723 52.3792 51.2269L68.7778 67.7638C69.2191 68.2087 69.7993 68.4312 70.3798 68.4312C70.954 68.4312 71.5285 68.2135 71.9682 67.7773C72.8528 66.9 72.8588 65.4715 71.9818 64.5872L65.8717 58.4258C65.6103 56.9438 65.4741 55.424 65.4698 53.9059C65.4503 46.8953 68.1618 40.2965 73.1052 35.3255C78.0657 30.3364 84.6829 27.5854 91.7184 27.5861C98.7002 27.5861 105.27 30.2961 110.223 35.2214C115.194 40.1647 117.942 46.7479 117.962 53.7585C117.981 60.7691 115.27 67.3677 110.327 72.3387C105.383 77.3097 98.8 80.0585 91.7894 80.0781C91.7645 80.0781 91.7398 80.0781 91.7151 80.0781C90.0981 80.0781 88.4814 79.9289 86.9071 79.6374L79.4261 72.0917C78.549 71.2068 77.1206 71.2008 76.236 72.0779C75.3511 72.9553 75.3451 74.3834 76.2222 75.268L89.8012 88.9647C91.1394 90.3161 91.8763 92.1054 91.8763 94.0034C91.8763 95.8968 91.1436 97.6819 89.8139 99.0297C88.461 100.401 86.6533 101.157 84.7241 101.159C84.7205 101.159 84.7178 101.159 84.7141 101.159C82.9212 101.159 81.2043 100.489 79.88 99.2724L51.0438 72.7736C50.1264 71.9305 48.6995 71.9907 47.8564 72.9084C47.0133 73.8258 47.0738 75.2527 47.9911 76.0957L76.8277 102.595C78.9876 104.579 81.7875 105.671 84.7141 105.671H84.7274H84.7301H130.807C133.752 105.671 136.52 106.818 138.602 108.899C140.684 110.981 141.83 113.75 141.83 116.695C141.83 118.043 140.735 119.14 139.388 119.14H129.216C127.969 119.14 126.96 120.15 126.96 121.396C126.96 122.642 127.969 123.652 129.216 123.652H139.388C143.222 123.652 146.342 120.531 146.342 116.695C146.342 115.135 146.114 113.611 145.673 112.159H147.518C151.092 112.159 154 109.252 154 105.678V103.859C154 96.0333 147.633 89.6667 139.808 89.6667ZM60.9626 53.4749L55.5835 48.0503C54.8044 47.2644 53.9866 46.5211 53.1354 45.8221C53.8423 42.3953 54.9864 39.1478 56.5021 36.1324L64.0159 40.4706C62.1062 44.4136 61.0156 48.8224 60.9626 53.4749ZM89.4129 23.161C79.7994 23.8762 71.4079 29.0274 66.2756 36.5656L58.757 32.2247C65.4572 22.0219 76.7248 15.2426 89.4129 14.5054V23.161ZM125.321 82.6862C129.483 82.6862 132.951 85.7045 133.657 89.6667H117.079C119.921 87.6521 122.515 85.3072 124.804 82.6862H125.321ZM114.666 7.16481C116.512 10.0313 118.481 12.0011 121.348 13.8467C118.481 15.6926 116.512 17.6624 114.666 20.5285C112.82 17.6621 110.85 15.6923 107.984 13.8467C110.85 12.0008 112.82 10.031 114.666 7.16481ZM117.146 36.5171C116.054 34.9212 114.805 33.4155 113.404 32.022C108.124 26.7715 101.278 23.6702 93.9247 23.1522V14.5012C96.8741 14.663 99.7824 15.153 102.604 15.9627C107.838 18.6739 109.931 20.7998 112.659 26.1182C113.045 26.8711 113.82 27.3448 114.666 27.3448C115.512 27.3448 116.287 26.8714 116.673 26.1182C117.023 25.4358 117.363 24.8062 117.7 24.2209C120.393 26.5814 122.724 29.259 124.652 32.1835L117.146 36.5171ZM91.8168 84.5898C100.027 84.563 107.737 81.3426 113.526 75.5201C114.878 74.1602 116.086 72.6951 117.146 71.1455L124.641 75.4728C118.379 84.9754 108.123 91.5788 96.3399 92.9584C96.1008 90.2568 94.9398 87.7423 93.0061 85.7893L91.8168 84.5898ZM149.488 105.678C149.488 106.764 148.605 107.648 147.518 107.648H143.437C142.945 106.965 142.399 106.316 141.793 105.709C138.859 102.775 134.957 101.159 130.807 101.159H93.9343C94.7843 100.069 95.4262 98.8486 95.8394 97.5475C100.482 97.1143 104.922 95.9524 109.044 94.1784H139.808C145.146 94.1784 149.489 98.5211 149.489 103.859V105.678H149.488Z"/>
</mask>
<path d="M139.808 89.6667H138.214C137.577 84.1203 133.433 79.6272 128.061 78.468C131.846 72.8978 134.39 66.4055 135.276 59.3774C135.432 58.1415 134.556 57.013 133.32 56.8572C132.087 56.6999 130.956 57.5767 130.8 58.8129C130.227 63.358 128.88 67.6525 126.901 71.5684L119.411 67.2438C121.427 63.0897 122.487 58.4991 122.473 53.7459C122.46 49.0516 121.401 44.5212 119.41 40.4189L126.914 36.0864C128.908 40.0411 130.229 44.3429 130.797 48.8495C130.941 49.99 131.912 50.8235 133.032 50.8235C133.126 50.8235 133.221 50.8175 133.317 50.8055C134.553 50.6497 135.429 49.5214 135.273 48.2855C133.905 37.4294 128.618 27.6432 120.322 20.5243C121.965 18.7208 123.946 17.3875 126.937 15.8535C127.69 15.4673 128.163 14.6925 128.163 13.8464C128.163 13.0003 127.69 12.2252 126.937 11.8389C121.547 9.07507 119.437 6.96449 116.673 1.57449C116.287 0.821631 115.512 0.3479 114.665 0.3479C113.819 0.3479 113.044 0.82133 112.658 1.57449C110.029 6.701 107.989 8.86121 103.158 11.4383C99.4037 10.4271 95.5245 9.91425 91.5921 9.92477C71.4374 9.98132 54.0233 23.7351 49.1507 43.0173C44.0524 39.9641 38.1544 38.29 32.1622 38.29H17.8451V38.0012C17.8451 35.099 15.4836 32.7375 12.5814 32.7375H2.25586C1.01002 32.7375 0 33.7476 0 34.9934C0 36.2392 1.01002 37.2492 2.25586 37.2492H12.5817C12.9962 37.2492 13.3336 37.5867 13.3336 38.0012V46.8562C13.3336 48.102 14.3437 49.1121 15.5895 49.1121C16.8353 49.1121 17.8454 48.102 17.8454 46.8562V42.8017H32.1625C39.7034 42.8017 47.072 45.8723 52.3792 51.2269L68.7778 67.7638C69.2191 68.2087 69.7993 68.4312 70.3798 68.4312C70.954 68.4312 71.5285 68.2135 71.9682 67.7773C72.8528 66.9 72.8588 65.4715 71.9818 64.5872L65.8717 58.4258C65.6103 56.9438 65.4741 55.424 65.4698 53.9059C65.4503 46.8953 68.1618 40.2965 73.1052 35.3255C78.0657 30.3364 84.6829 27.5854 91.7184 27.5861C98.7002 27.5861 105.27 30.2961 110.223 35.2214C115.194 40.1647 117.942 46.7479 117.962 53.7585C117.981 60.7691 115.27 67.3677 110.327 72.3387C105.383 77.3097 98.8 80.0585 91.7894 80.0781C91.7645 80.0781 91.7398 80.0781 91.7151 80.0781C90.0981 80.0781 88.4814 79.9289 86.9071 79.6374L79.4261 72.0917C78.549 71.2068 77.1206 71.2008 76.236 72.0779C75.3511 72.9553 75.3451 74.3834 76.2222 75.268L89.8012 88.9647C91.1394 90.3161 91.8763 92.1054 91.8763 94.0034C91.8763 95.8968 91.1436 97.6819 89.8139 99.0297C88.461 100.401 86.6533 101.157 84.7241 101.159C84.7205 101.159 84.7178 101.159 84.7141 101.159C82.9212 101.159 81.2043 100.489 79.88 99.2724L51.0438 72.7736C50.1264 71.9305 48.6995 71.9907 47.8564 72.9084C47.0133 73.8258 47.0738 75.2527 47.9911 76.0957L76.8277 102.595C78.9876 104.579 81.7875 105.671 84.7141 105.671H84.7274H84.7301H130.807C133.752 105.671 136.52 106.818 138.602 108.899C140.684 110.981 141.83 113.75 141.83 116.695C141.83 118.043 140.735 119.14 139.388 119.14H129.216C127.969 119.14 126.96 120.15 126.96 121.396C126.96 122.642 127.969 123.652 129.216 123.652H139.388C143.222 123.652 146.342 120.531 146.342 116.695C146.342 115.135 146.114 113.611 145.673 112.159H147.518C151.092 112.159 154 109.252 154 105.678V103.859C154 96.0333 147.633 89.6667 139.808 89.6667ZM60.9626 53.4749L55.5835 48.0503C54.8044 47.2644 53.9866 46.5211 53.1354 45.8221C53.8423 42.3953 54.9864 39.1478 56.5021 36.1324L64.0159 40.4706C62.1062 44.4136 61.0156 48.8224 60.9626 53.4749ZM89.4129 23.161C79.7994 23.8762 71.4079 29.0274 66.2756 36.5656L58.757 32.2247C65.4572 22.0219 76.7248 15.2426 89.4129 14.5054V23.161ZM125.321 82.6862C129.483 82.6862 132.951 85.7045 133.657 89.6667H117.079C119.921 87.6521 122.515 85.3072 124.804 82.6862H125.321ZM114.666 7.16481C116.512 10.0313 118.481 12.0011 121.348 13.8467C118.481 15.6926 116.512 17.6624 114.666 20.5285C112.82 17.6621 110.85 15.6923 107.984 13.8467C110.85 12.0008 112.82 10.031 114.666 7.16481ZM117.146 36.5171C116.054 34.9212 114.805 33.4155 113.404 32.022C108.124 26.7715 101.278 23.6702 93.9247 23.1522V14.5012C96.8741 14.663 99.7824 15.153 102.604 15.9627C107.838 18.6739 109.931 20.7998 112.659 26.1182C113.045 26.8711 113.82 27.3448 114.666 27.3448C115.512 27.3448 116.287 26.8714 116.673 26.1182C117.023 25.4358 117.363 24.8062 117.7 24.2209C120.393 26.5814 122.724 29.259 124.652 32.1835L117.146 36.5171ZM91.8168 84.5898C100.027 84.563 107.737 81.3426 113.526 75.5201C114.878 74.1602 116.086 72.6951 117.146 71.1455L124.641 75.4728C118.379 84.9754 108.123 91.5788 96.3399 92.9584C96.1008 90.2568 94.9398 87.7423 93.0061 85.7893L91.8168 84.5898ZM149.488 105.678C149.488 106.764 148.605 107.648 147.518 107.648H143.437C142.945 106.965 142.399 106.316 141.793 105.709C138.859 102.775 134.957 101.159 130.807 101.159H93.9343C94.7843 100.069 95.4262 98.8486 95.8394 97.5475C100.482 97.1143 104.922 95.9524 109.044 94.1784H139.808C145.146 94.1784 149.489 98.5211 149.489 103.859V105.678H149.488Z" fill="white" stroke="#3D58F0" stroke-width="2" mask="url(#path-1-inside-1_255_261)"/>
</g>
<path id="Vector_2" d="M70.8268 117.819L70.827 117.819C72.6319 119.01 74.7305 119.64 76.8947 119.64H118.688C119.658 119.64 120.444 120.426 120.444 121.396C120.444 122.366 119.658 123.152 118.688 123.152H76.8944C74.0402 123.152 71.2734 122.321 68.8921 120.75C68.8921 120.75 68.892 120.75 68.892 120.75L20.9232 89.0804L20.9232 89.0804C20.0042 88.4739 19.0513 87.9194 18.0738 87.4173L17.3454 87.043V87.862V88.1896C17.3454 90.8157 15.2078 92.9532 12.5817 92.9532H2.25586C1.28617 92.9532 0.5 92.1671 0.5 91.1974C0.5 90.2277 1.28617 89.4415 2.25586 89.4415H12.5817C13.2723 89.4415 13.8336 88.8802 13.8336 88.1896V57.3835C13.8336 56.4139 14.6198 55.6277 15.5895 55.6277C16.5592 55.6277 17.3454 56.4139 17.3454 57.3835V82.8754V83.2039L17.6469 83.3343C19.4579 84.1172 21.207 85.0604 22.8577 86.1495L70.8268 117.819Z" fill="white" stroke="#3D58F0"/>
<path id="Vector_3" d="M91.5794 64.536L91.5791 64.536C90.3358 64.5471 89.4583 64.5249 88.641 64.3235C87.8123 64.1194 87.0787 63.7402 86.0951 63.1008C85.282 62.5724 84.1948 62.8027 83.6658 63.6158C83.1373 64.4288 83.368 65.5163 84.1809 66.045C86.307 67.4272 87.754 67.8679 89.5378 67.9994L89.9998 68.0335L90.0011 68.4967L90.0074 70.7637C90.0102 71.7317 90.7957 72.5146 91.7633 72.5146L91.7681 72.5146C91.7685 72.5146 91.7689 72.5146 91.7693 72.5146C92.7384 72.5112 93.5216 71.7232 93.5191 70.7539C93.5191 70.7538 93.5191 70.7538 93.5191 70.7538L93.5119 68.2153L93.5108 67.834L93.8782 67.732C97.3014 66.7824 99.5003 63.8129 99.9845 60.8835C100.612 57.0849 98.5529 53.6649 94.8229 52.3581L94.8228 52.3581C94.2558 52.1592 93.7114 51.9789 93.1875 51.8053L93.1556 51.7948L93.3129 51.3202L93.1556 51.7948L93.1365 51.7885C92.1246 51.4532 91.2221 51.1543 90.4778 50.8278C89.7303 50.5 89.0893 50.1228 88.636 49.6037L88.6359 49.6036C87.7022 48.5339 87.3389 47.124 87.7105 45.8267C87.9092 45.1324 88.5014 43.8822 90.1694 43.3746C93.14 42.4706 95.0117 44.3156 95.2337 44.5493L94.8712 44.8937L95.2337 44.5493C95.902 45.2527 97.0136 45.2808 97.7159 44.6131L97.7161 44.6129C98.4193 43.9451 98.4477 42.8338 97.7797 42.1307C96.8984 41.2031 95.5134 40.3015 93.8099 39.8753L93.4324 39.7809L93.4313 39.3917L93.4244 36.9007C93.4216 35.9325 92.6361 35.1497 91.6685 35.1497H91.6685H91.6685H91.6685H91.6685H91.6685H91.6684H91.6684H91.6684H91.6684H91.6684H91.6684H91.6684H91.6684H91.6683H91.6683H91.6683H91.6683H91.6683H91.6683H91.6683H91.6683H91.6682H91.6682H91.6682H91.6682H91.6682H91.6682H91.6682H91.6682H91.6681H91.6681H91.6681H91.6681H91.6681H91.6681H91.6681H91.6681H91.668H91.668H91.668H91.668H91.668H91.668H91.668H91.668H91.6679H91.6679H91.6679H91.6679H91.6679H91.6679H91.6679H91.6679H91.6678H91.6678H91.6678H91.6678H91.6678H91.6678H91.6678H91.6678H91.6677H91.6677H91.6677H91.6677H91.6677H91.6677H91.6677H91.6677H91.6677H91.6676H91.6676H91.6676H91.6676H91.6676H91.6676H91.6676H91.6676H91.6675H91.6675H91.6675H91.6675H91.6675H91.6675H91.6675H91.6675H91.6674H91.6674H91.6674H91.6674H91.6674H91.6674H91.6674H91.6674H91.6673H91.6673H91.6673H91.6673H91.6673H91.6673H91.6673H91.6673H91.6672H91.6672H91.6672H91.6672H91.6672H91.6672H91.6672H91.6672H91.6671H91.6671H91.6671H91.6671H91.6671H91.6671H91.6671H91.6671H91.667H91.667H91.667H91.667H91.667H91.667H91.667H91.667H91.6669H91.6669H91.6669H91.6669H91.6669H91.6669H91.6669H91.6669H91.6668H91.6668H91.6668H91.6668H91.6668H91.6668H91.6668H91.6668H91.6667H91.6667H91.6667H91.6667H91.6667H91.6667H91.6667H91.6667H91.6667H91.6666H91.6666H91.6666H91.6666H91.6666H91.6666H91.6666H91.6666H91.6665H91.6665H91.6665H91.6665H91.6665H91.6665H91.6665H91.6665H91.6664H91.6664H91.6664H91.6664H91.6664H91.6664H91.6664H91.6664H91.6663H91.6663H91.6663H91.6663H91.6663H91.6663H91.6663H91.6663H91.6662H91.6662H91.6662H91.6662H91.6662H91.6662H91.6662H91.6662H91.6661H91.6661H91.6661H91.6661H91.6661H91.6661H91.6661H91.6661H91.666H91.666H91.666H91.666H91.666H91.666H91.666H91.666H91.6659H91.6659H91.6659H91.6659H91.6659H91.6659H91.6659H91.6659H91.6658H91.6658H91.6658H91.6658H91.6658H91.6658H91.6658H91.6658H91.6658H91.6657H91.6657H91.6657H91.6657H91.6657H91.6657H91.6657H91.6657H91.6656H91.6656H91.6656H91.6656H91.6656H91.6656H91.6656H91.6656H91.6655H91.6655H91.6655H91.6655H91.6655H91.6655H91.6655H91.6655H91.6654H91.6654H91.6654H91.6654H91.6654H91.6654H91.6654H91.6654H91.6653H91.6653H91.6653H91.6653H91.6653H91.6653H91.6653H91.6653H91.6652H91.6652H91.6652H91.6652H91.6652H91.6652H91.6652H91.6652H91.6651H91.6651H91.6651H91.6651H91.6651H91.6651H91.6651H91.6651H91.665H91.665H91.665H91.665H91.665H91.665H91.665H91.665H91.6649H91.6649H91.6649H91.6649H91.6649H91.6649H91.6649H91.6649H91.6649H91.6648H91.6648H91.6648H91.6648H91.6648H91.6648H91.6648H91.6648H91.6647H91.6647H91.6647H91.6647H91.6647H91.6647H91.6647H91.6647H91.6646H91.6646H91.6646H91.6646H91.6646H91.6646H91.6646H91.6646H91.6645H91.6645H91.6645H91.6645H91.6645H91.6645H91.6645H91.6645H91.6644H91.6644H91.6644H91.6644H91.6644H91.6644H91.6644H91.6644H91.6643H91.6643H91.6643H91.6643H91.6643H91.6643H91.6643H91.6643H91.6642H91.6642H91.6642H91.6642H91.6642H91.6642H91.6642H91.6642H91.6641H91.6641H91.6641H91.6641H91.6641H91.6641H91.6641H91.6641H91.664H91.664H91.664H91.664H91.664H91.664H91.664H91.664H91.6639H91.6639H91.6639H91.6639H91.6639H91.6639H91.6639H91.6639H91.6639H91.6638H91.6638H91.6638H91.6638H91.6638H91.6638H91.6638H91.6638H91.6637H91.6637H91.6637H91.6637H91.6637H91.6637H91.6637H91.6637H91.6636H91.6636H91.6636H91.6636H91.6636H91.6636H91.6636H91.6636H91.6635H91.6635H91.6635H91.6635H91.6635H91.6635H91.6635H91.6635H91.6634H91.6634H91.6634H91.6634H91.6634H91.6634H91.6634H91.6634H91.6633H91.6633H91.6633H91.6633H91.6633H91.6633H91.6633H91.6633H91.6632H91.6632H91.6632H91.6632H91.6632H91.6632H91.6632H91.6632H91.6631H91.6631H91.6631H91.6631H91.6631H91.6631H91.6631H91.6631H91.663H91.663H91.663H91.663H91.663H91.663H91.663H91.663H91.663H91.6629H91.6629H91.6629H91.6629C90.6933 35.1526 89.9098 35.9406 89.9127 36.9104V36.9105L89.9196 39.4256L89.9207 39.8218L89.5352 39.9134C87.0239 40.5106 85.0266 42.4212 84.3346 44.8591L84.3343 44.8602C83.6403 47.284 84.2517 49.921 85.9904 51.9132L91.5794 64.536ZM91.5794 64.536C94.5032 64.5082 96.1891 62.3133 96.5198 60.3112M91.5794 64.536L96.5198 60.3112M92.0519 55.1286L92.0521 55.1287C92.0843 55.1394 92.1166 55.1501 92.149 55.1608C92.6291 55.32 93.1355 55.4878 93.6624 55.6725M92.0519 55.1286L93.6624 55.6725M92.0519 55.1286C89.4989 54.2832 87.4586 53.5947 85.9905 51.9133L92.0519 55.1286ZM93.6624 55.6725C95.1605 56.1975 95.9439 57.0932 96.3088 58.0226C96.6644 58.928 96.6025 59.8115 96.5198 60.3112M93.6624 55.6725L96.5198 60.3112" fill="white" stroke="#3D58F0"/>
<path id="Vector_4" d="M139.099 14.4552L139.099 14.4552C138.077 16.4478 137.178 17.8526 136.013 19.0177C134.848 20.1827 133.443 21.0817 131.451 22.1037L139.099 14.4552ZM139.099 14.4552C139.4 13.869 140.003 13.5005 140.662 13.5005C141.32 13.5005 141.923 13.8691 142.224 14.4552M139.099 14.4552L142.224 14.4552M142.669 33.1053L142.224 32.8772C143.246 30.8846 144.145 29.4798 145.31 28.3147C146.475 27.1496 147.88 26.2506 149.872 25.2287C150.458 24.9281 150.827 24.3248 150.827 23.6662C150.827 23.0076 150.458 22.4043 149.872 22.1037L142.669 33.1053ZM142.669 33.1053L142.224 32.8772C141.923 33.4634 141.32 33.8319 140.662 33.8319C140.003 33.8319 139.4 33.4632 139.099 32.8772L142.669 33.1053ZM136.013 28.3145C137.178 29.4795 138.077 30.8844 139.099 32.8771L136.013 28.3145ZM136.013 28.3145C134.848 27.1494 133.443 26.2505 131.451 25.2288M136.013 28.3145L131.451 25.2288M131.451 25.2288C130.865 24.9281 130.496 24.3247 130.496 23.6662C130.496 23.0076 130.865 22.4043 131.451 22.1037L131.451 25.2288ZM142.224 14.4552C143.246 16.4479 144.145 17.8528 145.31 19.0179M142.224 14.4552L145.31 19.0179M145.31 19.0179C146.475 20.183 147.88 21.0819 149.872 22.1037L145.31 19.0179ZM141.07 19.3877L140.662 18.809L140.253 19.3877C139.15 20.9508 137.946 22.1542 136.383 23.2577L135.804 23.6661L136.383 24.0746C137.946 25.1785 139.15 26.3816 140.253 27.9447L140.661 28.5232L141.07 27.9448C142.174 26.3819 143.377 25.1784 144.94 24.0746L145.519 23.6662L144.94 23.2577C143.377 22.1539 142.173 20.9508 141.07 19.3877Z" fill="white" stroke="#3D58F0"/>
<path id="Vector_5" d="M43.1712 15.8393L43.1712 15.8393C45.1638 16.8611 46.5686 17.76 47.7337 18.9251C48.8987 20.0901 49.7977 21.495 50.8197 23.4877C51.1203 24.0737 51.7234 24.4422 52.3819 24.4422C53.0405 24.4422 53.6438 24.0737 53.9444 23.4875C54.9662 21.4947 55.8651 20.0899 57.0302 18.9249C58.1953 17.7599 59.6001 16.8609 61.5928 15.839C62.1789 15.5383 62.5476 14.9352 62.5476 14.2765C62.5476 13.6179 62.1791 13.0146 61.5932 12.7143L61.5931 12.7143C59.6004 11.6922 58.1956 10.7932 57.0305 9.62817C55.8654 8.46314 54.9665 7.05842 53.9447 5.06582M43.1712 15.8393L43.1716 12.7143M43.1712 15.8393C42.5853 15.5389 42.2166 14.9357 42.2168 14.2767V14.2765M43.1712 15.8393L42.2168 14.2765M53.9447 5.06582L54.3896 4.83767L53.9447 5.06589C53.9447 5.06587 53.9447 5.06584 53.9447 5.06582ZM53.9447 5.06582C53.644 4.47975 53.0409 4.11108 52.3822 4.11108C51.7236 4.11108 51.1204 4.4796 50.8201 5.06567L50.82 5.06583C49.798 7.05857 48.899 8.46336 47.734 9.62839C46.5689 10.7934 45.1641 11.6923 43.1716 12.7143M43.1716 12.7143C42.5854 13.0149 42.2168 13.6181 42.2168 14.2765M43.1716 12.7143L42.2168 14.2765M52.7906 9.99822L52.3822 9.41977L51.9738 9.99822C50.87 11.5614 49.6665 12.7649 48.1033 13.8686L47.5249 14.2771L48.1033 14.6855C49.6666 15.7893 50.87 16.9925 51.9737 18.5559L52.3822 19.1345L52.7906 18.556C53.8944 16.9927 55.0978 15.7893 56.6611 14.6855L57.2395 14.2771L56.6611 13.8687C55.0975 12.7646 53.8944 11.5614 52.7906 9.99822Z" fill="white" stroke="#3D58F0"/>
</g>
</svg>
