<svg xmlns="http://www.w3.org/2000/svg" fill="none" viewBox="0 0 146 146">
  <path fill="#fff" stroke="#3D58F0" d="m78.9046 53.3182-.8536.8536H85.7466c5.713 0 10.359-4.646 10.359-10.3591v-9.2553c0-.3481-.2813-.6348-.6337-.6348h-9.2564c-5.7119 0-10.3591 4.6471-10.3591 10.3591v7.4504l.8536-.8535 8.0512-8.0512c.6402-.6402 1.677-.6402 2.3171 0 .6403.6403.64 1.678.0003 2.3168l-.0003.0003-8.1737 8.1737Zm7.3109-22.6729h9.2564c2.1565 0 3.911 1.7553 3.911 3.9121v9.2553c0 7.5189-6.1175 13.6364-13.6363 13.6364h-9.2554c-2.1566 0-3.9121-1.7555-3.9121-3.9121v-9.2553c0-7.5189 6.1186-13.6364 13.6364-13.6364ZM125.322 72.4553c0-.9057.733-1.6386 1.639-1.6386.905 0 1.639.7331 1.639 1.6386v30.1757c0 .905-.734 1.638-1.639 1.638-.906 0-1.639-.733-1.639-1.638V72.4553Z"/>
  <path fill="#fff" stroke="#3D58F0" d="M124.823 121.572h.5v-9.195c0-.905.733-1.638 1.638-1.638.905 0 1.639.733 1.639 1.638v21.227c0 6.559-5.338 11.896-11.896 11.896H55.2579c-5.9369 0-10.8735-4.373-11.7553-10.067l-.0855-.552-.539.146c-.8804.237-1.7834.414-2.708.518l-.4441.05v8.125c0 .904-.7341 1.639-1.6387 1.639-.9046 0-1.6387-.735-1.6387-1.639v-9.695c0-.906.7339-1.639 1.6387-1.639 8.3921 0 15.2134-6.877 15.2134-15.323V96.7114c0-.9047.7331-1.6386 1.6387-1.6386h6.3982c4.4365 0 8.0443-3.6079 8.0443-8.0444v-2.8627c0-.6694-.5435-1.2129-1.2128-1.2129H49.6072c-5.4491 0-9.8812 4.4321-9.8812 9.8812v14.835c0 .904-.7341 1.638-1.6387 1.638-.9046 0-1.6387-.734-1.6387-1.638V92.834c0-4.8918 2.6858-9.1677 6.6617-11.4353l.2522-.1439V62.8504h-6.9839c-8.5423 0-15.4919 6.9483-15.4919 15.4907v65.3779c0 .904-.7341 1.638-1.6387 1.638-.9045 0-1.6386-.734-1.6386-1.638V78.3411c0-10.3481 8.4199-18.7681 18.7692-18.7681h6.9839V40.2327c0-.9056.734-1.6387 1.6387-1.6387.9048 0 1.6387.7331 1.6387 1.6387v39.7701l.5903-.1084c.7727-.1418 1.5656-.219 2.377-.219h7.581v-4.0967c0-2.4752 2.015-4.4903 4.4902-4.4903h48.6046c2.475 0 4.49 2.0151 4.49 4.4903v7.0231c0 2.4751-2.015 4.4902-4.49 4.4902H72.6677l-.0223.4766a11.2172 11.2172 0 0 1-.5599 3.0115l-.2182.6575H106.983c2.475 0 4.49 2.0151 4.49 4.4903v7.0231c0 2.475-2.015 4.49-4.49 4.49H64.9789c-2.4752 0-4.4903-2.015-4.4903-4.49v-4.4009H56.578v18.7119c0 1.339-.1463 2.645-.4156 3.906l-.1291.604h68.7897ZM60.4655 79.1754v.5h7.7036c2.212 0 4.0546 1.612 4.4195 3.7244l.0717.4149h37.6227c.669 0 1.213-.5436 1.213-1.2129v-7.0242c0-.6678-.543-1.2129-1.213-1.2129H61.6784c-.6682 0-1.2129.5446-1.2129 1.2129v3.5978Zm9.5793 15.3396h-.2196l-.1486.1618c-1.4646 1.5948-3.3766 2.769-5.5346 3.3213l-.376.0963v4.6566c0 .669.5435 1.213 1.2129 1.213h42.0041c.669 0 1.212-.544 1.212-1.213v-7.0231c0-.6694-.543-1.2129-1.212-1.2129H70.0448ZM46.905 133.402l-.2681.147.0088.306c.1336 4.637 3.9441 8.368 8.6122 8.368h61.4461c4.752 0 8.619-3.867 8.618-8.619v-8.754H54.8768l-.1363.283c-1.6891 3.51-4.4416 6.408-7.8355 8.269ZM47.1396 22.1465h-.5v8.3396c0 .9055-.7339 1.6387-1.6386 1.6387-.9057 0-1.6387-.733-1.6387-1.6387V12.3965C43.3623 5.8367 48.699.5 55.2577.5h61.4453c6.559 0 11.897 5.3367 11.897 11.8965v50.3123c0 .9055-.734 1.6386-1.639 1.6386-.906 0-1.639-.7329-1.639-1.6386V22.1465H47.1396Zm-.5-3.7773v.5h78.6824v-6.4727c0-4.7529-3.866-8.6192-8.619-8.6192H55.2577c-4.753 0-8.6181 3.8664-8.6181 8.6192v5.9727Z"/>
  <path fill="#fff" stroke="#3D58F0" d="M79.4912 133.455c0-3.49 2.8405-6.33 6.3304-6.33s6.3304 2.84 6.3304 6.33c0 3.491-2.8404 6.331-6.3304 6.331s-6.3304-2.84-6.3304-6.331Zm3.2774 0c0 1.684 1.3689 3.053 3.053 3.053s3.053-1.369 3.053-3.053-1.3689-3.053-3.053-3.053-3.053 1.369-3.053 3.053ZM81.334 10.7656h8.3386c.9046 0 1.6386.7341 1.6386 1.6387 0 .9046-.734 1.6387-1.6386 1.6387H81.334c-.9055 0-1.6387-.734-1.6387-1.6387 0-.9048.7332-1.6387 1.6387-1.6387ZM98.8151 10.7789h-.0001l-2.5631-.0267H96.2304c-.8964 0-1.6281.7226-1.6375 1.6227l4.2222-1.596Zm0 0c.9047.0094 1.6309.7502 1.6219 1.6558l-1.6219-1.6558Zm-2.6006 3.2507 2.5638.0267h.0197c.8969 0 1.629-.7231 1.639-1.6216l-4.2225 1.5949Zm0 0c-.9058-.0094-1.631-.7502-1.6216-1.6547l1.6216 1.6547ZM71.3526 12.426c-.0052-.9081.728-1.655 1.6299-1.6604.9109-.0032 1.6416.7159 1.6474 1.6157v.0281c.0051.9037-.7235 1.6411-1.629 1.647h-.0097c-.9011 0-1.6335-.7279-1.6386-1.6304Zm0 0-.5.0028m.5-.0028-.5.0028m0 0c.0067 1.1774.9624 2.1276 2.1386 2.1276h.0112l2.1275-2.1766c-.0067-1.1807-.9668-2.1186-2.1498-2.1142-1.1818.0067-2.1342.9825-2.1275 2.1632ZM65.4463 67.3103h-5.7666c-.9046 0-1.6387-.7341-1.6387-1.6387 0-.9055.7339-1.6386 1.6387-1.6386h5.7666c.9048 0 1.6387.7331 1.6387 1.6386 0 .9046-.7341 1.6387-1.6387 1.6387ZM100.235 67.3103c-.9052 0-1.6383-.7339-1.6383-1.6387 0-.9057.733-1.6386 1.6383-1.6386h12.641c.905 0 1.638.7331 1.638 1.6386 0 .9046-.734 1.6387-1.638 1.6387h-12.641Z"/>
</svg>
